<mxfile host="app.diagrams.net" agent="Mozilla/5.0 (Windows NT 10.0; Win64; x64; rv:129.0) Gecko/20100101 Firefox/129.0" version="24.7.6">
  <diagram name="Page-1" id="13e1069c-82ec-6db2-03f1-153e76fe0fe0">
    <mxGraphModel dx="737" dy="705" grid="1" gridSize="10" guides="1" tooltips="1" connect="1" arrows="1" fold="1" page="1" pageScale="1" pageWidth="850" pageHeight="1100" background="none" math="0" shadow="0">
      <root>
        <mxCell id="0" />
        <mxCell id="1" parent="0" />
        <mxCell id="7baba1c4bc27f4b0-3" value="System" style="shape=umlLifeline;perimeter=lifelinePerimeter;whiteSpace=wrap;html=1;container=0;collapsible=0;recursiveResize=0;outlineConnect=0;rounded=1;shadow=0;comic=0;labelBackgroundColor=none;strokeWidth=1;fontFamily=Verdana;fontSize=12;align=center;" parent="1" vertex="1">
          <mxGeometry x="460" y="70" width="100" height="1150" as="geometry" />
        </mxCell>
        <mxCell id="7baba1c4bc27f4b0-2" value="Receptionist" style="shape=umlLifeline;perimeter=lifelinePerimeter;whiteSpace=wrap;html=1;container=0;collapsible=0;recursiveResize=0;outlineConnect=0;rounded=1;shadow=0;comic=0;labelBackgroundColor=none;strokeWidth=1;fontFamily=Verdana;fontSize=12;align=center;" parent="1" vertex="1">
          <mxGeometry x="220" y="70" width="100" height="1150" as="geometry" />
        </mxCell>
        <mxCell id="7baba1c4bc27f4b0-8" value="Patient" style="shape=umlLifeline;perimeter=lifelinePerimeter;whiteSpace=wrap;html=1;container=0;collapsible=0;recursiveResize=0;outlineConnect=0;rounded=1;shadow=0;comic=0;labelBackgroundColor=none;strokeWidth=1;fontFamily=Verdana;fontSize=12;align=center;strokeColor=#7A7A7A;fontColor=#7A7A7A;" parent="1" vertex="1">
          <mxGeometry x="50" y="70" width="100" height="1150" as="geometry" />
        </mxCell>
        <mxCell id="7baba1c4bc27f4b0-40" value="The injured or sick personel" style="shape=note;whiteSpace=wrap;html=1;size=14;verticalAlign=top;align=left;spacingTop=-6;rounded=0;shadow=0;comic=0;labelBackgroundColor=none;strokeWidth=1;fontFamily=Verdana;fontSize=12;strokeColor=#7A7A7A;fontColor=#7A7A7A;" parent="1" vertex="1">
          <mxGeometry x="40" y="10" width="120" height="50" as="geometry" />
        </mxCell>
        <mxCell id="7baba1c4bc27f4b0-41" value="The hospital frontdesk" style="shape=note;whiteSpace=wrap;html=1;size=14;verticalAlign=top;align=left;spacingTop=-6;rounded=0;shadow=0;comic=0;labelBackgroundColor=none;strokeWidth=1;fontFamily=Verdana;fontSize=12" parent="1" vertex="1">
          <mxGeometry x="210" y="10" width="120" height="50" as="geometry" />
        </mxCell>
        <mxCell id="7baba1c4bc27f4b0-42" value="The software and hardware for hospital system" style="shape=note;whiteSpace=wrap;html=1;size=14;verticalAlign=top;align=left;spacingTop=-6;rounded=0;shadow=0;comic=0;labelBackgroundColor=none;strokeWidth=1;fontFamily=Verdana;fontSize=12" parent="1" vertex="1">
          <mxGeometry x="450" y="10" width="120" height="50" as="geometry" />
        </mxCell>
        <mxCell id="LByolCIzenDjlAC9lmp4-23" value="Household Owner" style="shape=umlLifeline;perimeter=lifelinePerimeter;whiteSpace=wrap;html=1;container=1;collapsible=0;recursiveResize=0;outlineConnect=0;rounded=1;shadow=0;comic=0;labelBackgroundColor=none;strokeWidth=1;fontFamily=Verdana;fontSize=12;align=center;fontColor=#7A7A7A;strokeColor=#7A7A7A;" parent="1" vertex="1">
          <mxGeometry x="590" y="70" width="100" height="1150" as="geometry" />
        </mxCell>
        <mxCell id="2xwp-VBR8Y-N5bO9fRUN-4" value="Update first visit time" style="html=1;verticalAlign=bottom;endArrow=block;labelBackgroundColor=none;fontFamily=Verdana;fontSize=12;edgeStyle=orthogonalEdgeStyle;elbow=vertical;rounded=0;curved=0;exitX=1.073;exitY=0.217;exitDx=0;exitDy=0;exitPerimeter=0;endFill=1;entryX=1.047;entryY=0.253;entryDx=0;entryDy=0;entryPerimeter=0;" parent="LByolCIzenDjlAC9lmp4-23" edge="1">
          <mxGeometry x="-0.4288" relative="1" as="geometry">
            <mxPoint x="-75" y="910" as="sourcePoint" />
            <mxPoint x="-76" y="940" as="targetPoint" />
            <Array as="points">
              <mxPoint x="39" y="910" />
              <mxPoint x="39" y="940" />
            </Array>
            <mxPoint as="offset" />
          </mxGeometry>
        </mxCell>
        <mxCell id="LByolCIzenDjlAC9lmp4-24" value="" style="html=1;points=[];perimeter=orthogonalPerimeter;rounded=0;shadow=0;comic=0;labelBackgroundColor=none;strokeWidth=1;fontFamily=Verdana;fontSize=12;align=center;strokeColor=#7A7A7A;" parent="LByolCIzenDjlAC9lmp4-23" vertex="1">
          <mxGeometry x="45.5" y="1000" width="10" height="30" as="geometry" />
        </mxCell>
        <mxCell id="twHPvS0NZ_lWjFZJo6q6-1" value="&lt;div&gt;Verbal confirm&lt;/div&gt;&lt;div&gt;with household owner&lt;/div&gt;" style="html=1;verticalAlign=bottom;endArrow=block;labelBackgroundColor=none;fontFamily=Verdana;fontSize=12;edgeStyle=elbowEdgeStyle;elbow=vertical;entryX=-0.12;entryY=0.001;entryDx=0;entryDy=0;entryPerimeter=0;exitX=0.903;exitY=0.954;exitDx=0;exitDy=0;exitPerimeter=0;strokeColor=#7A7A7A;fontColor=#7A7A7A;" parent="LByolCIzenDjlAC9lmp4-23" edge="1">
          <mxGeometry relative="1" as="geometry">
            <mxPoint x="-315.5" y="1000" as="sourcePoint" />
            <mxPoint x="44.5" y="1000" as="targetPoint" />
            <Array as="points">
              <mxPoint x="30.5" y="1000" />
            </Array>
          </mxGeometry>
        </mxCell>
        <mxCell id="twHPvS0NZ_lWjFZJo6q6-4" value="&lt;div&gt;Success:&lt;/div&gt;&lt;div&gt;Provide Procedure ID&lt;/div&gt;&lt;div&gt;to patient&lt;/div&gt;" style="html=1;verticalAlign=bottom;endArrow=block;labelBackgroundColor=none;fontFamily=Verdana;fontSize=12;edgeStyle=elbowEdgeStyle;elbow=vertical;dashed=1;exitX=-0.052;exitY=0.946;exitDx=0;exitDy=0;exitPerimeter=0;strokeColor=#7A7A7A;fontColor=#7A7A7A;" parent="LByolCIzenDjlAC9lmp4-23" edge="1">
          <mxGeometry relative="1" as="geometry">
            <mxPoint x="-326.5" y="1119.05" as="sourcePoint" />
            <mxPoint x="-485.5" y="1119.05" as="targetPoint" />
            <Array as="points">
              <mxPoint x="-400.5" y="1119.05" />
              <mxPoint x="48.5" y="670.05" />
              <mxPoint x="128.5" y="670.05" />
            </Array>
          </mxGeometry>
        </mxCell>
        <mxCell id="twHPvS0NZ_lWjFZJo6q6-6" value="Success" style="html=1;verticalAlign=bottom;endArrow=block;labelBackgroundColor=none;fontFamily=Verdana;fontSize=12;edgeStyle=elbowEdgeStyle;elbow=vertical;dashed=1;exitX=-0.023;exitY=0.997;exitDx=0;exitDy=0;exitPerimeter=0;entryX=0.918;entryY=0.935;entryDx=0;entryDy=0;entryPerimeter=0;strokeColor=#7A7A7A;fontColor=#7A7A7A;" parent="LByolCIzenDjlAC9lmp4-23" edge="1">
          <mxGeometry relative="1" as="geometry">
            <mxPoint x="45.5" y="1030" as="sourcePoint" />
            <mxPoint x="-315.5" y="1030" as="targetPoint" />
            <Array as="points">
              <mxPoint x="10.5" y="1030" />
              <mxPoint x="175.5" y="590" />
              <mxPoint x="255.5" y="590" />
            </Array>
          </mxGeometry>
        </mxCell>
        <mxCell id="twHPvS0NZ_lWjFZJo6q6-11" value="" style="html=1;points=[];perimeter=orthogonalPerimeter;rounded=0;shadow=0;comic=0;labelBackgroundColor=none;strokeWidth=1;fontFamily=Verdana;fontSize=12;align=center;" parent="LByolCIzenDjlAC9lmp4-23" vertex="1">
          <mxGeometry x="-86.5" y="1060" width="10" height="50" as="geometry" />
        </mxCell>
        <mxCell id="twHPvS0NZ_lWjFZJo6q6-21" value="Get new Procedure ID" style="html=1;verticalAlign=bottom;endArrow=block;labelBackgroundColor=none;fontFamily=Verdana;fontSize=12;edgeStyle=orthogonalEdgeStyle;elbow=vertical;rounded=0;curved=0;exitX=0.948;exitY=0.979;exitDx=0;exitDy=0;exitPerimeter=0;endFill=1;entryX=-0.052;entryY=0.8;entryDx=0;entryDy=0;entryPerimeter=0;" parent="LByolCIzenDjlAC9lmp4-23" edge="1">
          <mxGeometry relative="1" as="geometry">
            <mxPoint x="-316.5" y="1059.05" as="sourcePoint" />
            <mxPoint x="-86.5" y="1059.05" as="targetPoint" />
            <Array as="points" />
            <mxPoint as="offset" />
          </mxGeometry>
        </mxCell>
        <mxCell id="twHPvS0NZ_lWjFZJo6q6-22" value="Return Procedure ID" style="html=1;verticalAlign=bottom;endArrow=block;labelBackgroundColor=none;fontFamily=Verdana;fontSize=12;edgeStyle=elbowEdgeStyle;elbow=vertical;dashed=1;entryX=0.918;entryY=0.935;entryDx=0;entryDy=0;entryPerimeter=0;exitX=-0.12;exitY=0.993;exitDx=0;exitDy=0;exitPerimeter=0;" parent="LByolCIzenDjlAC9lmp4-23" edge="1">
          <mxGeometry relative="1" as="geometry">
            <mxPoint x="-86.5" y="1110.4" as="sourcePoint" />
            <mxPoint x="-315.5" y="1110" as="targetPoint" />
            <Array as="points">
              <mxPoint x="-80.5" y="1110.4" />
              <mxPoint x="175.5" y="670" />
              <mxPoint x="255.5" y="670" />
            </Array>
          </mxGeometry>
        </mxCell>
        <mxCell id="2xwp-VBR8Y-N5bO9fRUN-3" value="Update last visit time" style="html=1;verticalAlign=bottom;endArrow=block;labelBackgroundColor=none;fontFamily=Verdana;fontSize=12;edgeStyle=orthogonalEdgeStyle;elbow=vertical;rounded=0;curved=0;exitX=1.073;exitY=0.217;exitDx=0;exitDy=0;exitPerimeter=0;endFill=1;entryX=1.047;entryY=0.253;entryDx=0;entryDy=0;entryPerimeter=0;" parent="LByolCIzenDjlAC9lmp4-23" edge="1">
          <mxGeometry x="-0.4288" relative="1" as="geometry">
            <mxPoint x="-75.5" y="1070" as="sourcePoint" />
            <mxPoint x="-76.5" y="1100" as="targetPoint" />
            <Array as="points">
              <mxPoint x="38.5" y="1070" />
              <mxPoint x="38.5" y="1100" />
            </Array>
            <mxPoint as="offset" />
          </mxGeometry>
        </mxCell>
        <mxCell id="LByolCIzenDjlAC9lmp4-26" value="Head of household, usually come with patient" style="shape=note;whiteSpace=wrap;html=1;size=14;verticalAlign=top;align=left;spacingTop=-6;rounded=0;shadow=0;comic=0;labelBackgroundColor=none;strokeWidth=1;fontFamily=Verdana;fontSize=12;fontColor=#7A7A7A;strokeColor=#7A7A7A;" parent="1" vertex="1">
          <mxGeometry x="580" y="10" width="120" height="50" as="geometry" />
        </mxCell>
        <mxCell id="7baba1c4bc27f4b0-9" value="" style="html=1;points=[];perimeter=orthogonalPerimeter;rounded=0;shadow=0;comic=0;labelBackgroundColor=none;strokeWidth=1;fontFamily=Verdana;fontSize=12;align=center;strokeColor=#7A7A7A;fontColor=#7A7A7A;" parent="1" vertex="1">
          <mxGeometry x="95" y="130" width="10" height="1060" as="geometry" />
        </mxCell>
        <mxCell id="7baba1c4bc27f4b0-11" value="Arrives hospital" style="html=1;verticalAlign=bottom;endArrow=block;entryX=0;entryY=0;labelBackgroundColor=none;fontFamily=Verdana;fontSize=12;edgeStyle=elbowEdgeStyle;elbow=vertical;strokeColor=#7A7A7A;fontColor=#7A7A7A;" parent="1" source="7baba1c4bc27f4b0-9" target="7baba1c4bc27f4b0-10" edge="1">
          <mxGeometry relative="1" as="geometry">
            <mxPoint x="200" y="140" as="sourcePoint" />
          </mxGeometry>
        </mxCell>
        <mxCell id="LByolCIzenDjlAC9lmp4-1" value="&lt;div&gt;Success: Display patient detail&lt;/div&gt;&lt;div&gt;(Name, Address, Household,&lt;/div&gt;&lt;div&gt;Insurance, Procedure ID)&lt;/div&gt;" style="html=1;verticalAlign=bottom;endArrow=none;labelBackgroundColor=none;fontFamily=Verdana;fontSize=12;edgeStyle=elbowEdgeStyle;elbow=vertical;entryX=-0.012;entryY=0.997;entryDx=0;entryDy=0;entryPerimeter=0;endFill=0;startArrow=block;startFill=1;dashed=1;" parent="1" edge="1">
          <mxGeometry relative="1" as="geometry">
            <mxPoint x="275.12" y="380.15" as="sourcePoint" />
            <mxPoint x="505.0000000000001" y="379.9999999999999" as="targetPoint" />
            <Array as="points">
              <mxPoint x="430" y="380" />
            </Array>
          </mxGeometry>
        </mxCell>
        <mxCell id="LByolCIzenDjlAC9lmp4-3" value="Request Identification" style="html=1;verticalAlign=bottom;endArrow=block;labelBackgroundColor=none;fontFamily=Verdana;fontSize=12;edgeStyle=elbowEdgeStyle;elbow=vertical;dashed=1;strokeColor=#7A7A7A;fontColor=#7A7A7A;" parent="1" edge="1">
          <mxGeometry relative="1" as="geometry">
            <mxPoint x="265" y="390" as="sourcePoint" />
            <mxPoint x="105" y="390" as="targetPoint" />
            <Array as="points">
              <mxPoint x="130" y="390" />
              <mxPoint x="210" y="390" />
            </Array>
          </mxGeometry>
        </mxCell>
        <mxCell id="LByolCIzenDjlAC9lmp4-4" value="Provide Identification" style="html=1;verticalAlign=bottom;endArrow=block;entryX=0;entryY=0;labelBackgroundColor=none;fontFamily=Verdana;fontSize=12;edgeStyle=elbowEdgeStyle;elbow=vertical;strokeColor=#7A7A7A;fontColor=#7A7A7A;" parent="1" edge="1">
          <mxGeometry relative="1" as="geometry">
            <mxPoint x="105" y="420" as="sourcePoint" />
            <mxPoint x="265" y="420" as="targetPoint" />
          </mxGeometry>
        </mxCell>
        <mxCell id="7baba1c4bc27f4b0-13" value="" style="html=1;points=[];perimeter=orthogonalPerimeter;rounded=0;shadow=0;comic=0;labelBackgroundColor=none;strokeWidth=1;fontFamily=Verdana;fontSize=12;align=center;" parent="1" vertex="1">
          <mxGeometry x="505" y="240" width="10" height="140" as="geometry" />
        </mxCell>
        <mxCell id="bX3GBFiF26rPp3UigS2z-4" value="Prompt patient detail search" style="html=1;verticalAlign=bottom;endArrow=none;labelBackgroundColor=none;fontFamily=Verdana;fontSize=12;edgeStyle=elbowEdgeStyle;elbow=vertical;entryX=-0.012;entryY=0.997;entryDx=0;entryDy=0;entryPerimeter=0;endFill=0;startArrow=block;startFill=1;dashed=1;" parent="1" edge="1">
          <mxGeometry relative="1" as="geometry">
            <mxPoint x="275.12" y="270.15" as="sourcePoint" />
            <mxPoint x="505.0000000000001" y="269.9999999999999" as="targetPoint" />
            <Array as="points">
              <mxPoint x="430" y="270" />
            </Array>
          </mxGeometry>
        </mxCell>
        <mxCell id="7baba1c4bc27f4b0-10" value="" style="html=1;points=[];perimeter=orthogonalPerimeter;rounded=0;shadow=0;comic=0;labelBackgroundColor=none;strokeWidth=1;fontFamily=Verdana;fontSize=12;align=center;" parent="1" vertex="1">
          <mxGeometry x="265" y="130" width="10" height="1060" as="geometry" />
        </mxCell>
        <mxCell id="bX3GBFiF26rPp3UigS2z-1" value="Require name, address, ..." style="html=1;verticalAlign=bottom;endArrow=block;labelBackgroundColor=none;fontFamily=Verdana;fontSize=12;edgeStyle=elbowEdgeStyle;elbow=vertical;dashed=1;strokeColor=#7A7A7A;fontColor=#7A7A7A;" parent="1" edge="1">
          <mxGeometry relative="1" as="geometry">
            <mxPoint x="265" y="280" as="sourcePoint" />
            <mxPoint x="105" y="280" as="targetPoint" />
            <Array as="points">
              <mxPoint x="130" y="280" />
              <mxPoint x="210" y="280" />
            </Array>
          </mxGeometry>
        </mxCell>
        <mxCell id="7baba1c4bc27f4b0-14" value="Search patient name and address" style="html=1;verticalAlign=bottom;endArrow=block;labelBackgroundColor=none;fontFamily=Verdana;fontSize=12;edgeStyle=elbowEdgeStyle;elbow=vertical;entryX=0.055;entryY=0.669;entryDx=0;entryDy=0;entryPerimeter=0;" parent="1" edge="1">
          <mxGeometry relative="1" as="geometry">
            <mxPoint x="274.45" y="320" as="sourcePoint" />
            <mxPoint x="505" y="320.35" as="targetPoint" />
            <Array as="points">
              <mxPoint x="390" y="320" />
            </Array>
          </mxGeometry>
        </mxCell>
        <mxCell id="bX3GBFiF26rPp3UigS2z-2" value="Provide name, address, ..." style="html=1;verticalAlign=bottom;endArrow=block;entryX=0;entryY=0;labelBackgroundColor=none;fontFamily=Verdana;fontSize=12;edgeStyle=elbowEdgeStyle;elbow=vertical;strokeColor=#7A7A7A;fontColor=#7A7A7A;" parent="1" edge="1">
          <mxGeometry relative="1" as="geometry">
            <mxPoint x="105" y="310" as="sourcePoint" />
            <mxPoint x="265" y="310" as="targetPoint" />
            <mxPoint as="offset" />
          </mxGeometry>
        </mxCell>
        <mxCell id="LByolCIzenDjlAC9lmp4-17" value="&lt;div&gt;Visual confirm: ID is valid,&lt;/div&gt;&lt;div&gt;Address matches&lt;br&gt;&lt;/div&gt;" style="html=1;verticalAlign=bottom;endArrow=block;labelBackgroundColor=none;fontFamily=Verdana;fontSize=12;edgeStyle=orthogonalEdgeStyle;elbow=vertical;rounded=0;curved=0;exitX=1.073;exitY=0.217;exitDx=0;exitDy=0;exitPerimeter=0;endFill=1;entryX=1.047;entryY=0.253;entryDx=0;entryDy=0;entryPerimeter=0;" parent="1" edge="1">
          <mxGeometry x="-0.1167" relative="1" as="geometry">
            <mxPoint x="276" y="430" as="sourcePoint" />
            <mxPoint x="275" y="460" as="targetPoint" />
            <Array as="points">
              <mxPoint x="390" y="430" />
              <mxPoint x="390" y="460" />
            </Array>
            <mxPoint as="offset" />
          </mxGeometry>
        </mxCell>
        <mxCell id="LByolCIzenDjlAC9lmp4-22" value="&lt;div&gt;Provide household&lt;/div&gt;&lt;div&gt;owner contact&lt;/div&gt;" style="html=1;verticalAlign=bottom;endArrow=block;entryX=0;entryY=0;labelBackgroundColor=none;fontFamily=Verdana;fontSize=12;edgeStyle=elbowEdgeStyle;elbow=vertical;strokeColor=#7A7A7A;fontColor=#7A7A7A;" parent="1" edge="1">
          <mxGeometry relative="1" as="geometry">
            <mxPoint x="105" y="520.24" as="sourcePoint" />
            <mxPoint x="265" y="520.24" as="targetPoint" />
          </mxGeometry>
        </mxCell>
        <mxCell id="LByolCIzenDjlAC9lmp4-21" value="&lt;div&gt;Request contact&lt;/div&gt;&lt;div&gt;household owner&lt;br&gt;&lt;/div&gt;" style="html=1;verticalAlign=bottom;endArrow=block;labelBackgroundColor=none;fontFamily=Verdana;fontSize=12;edgeStyle=elbowEdgeStyle;elbow=vertical;dashed=1;strokeColor=#7A7A7A;fontColor=#7A7A7A;" parent="1" edge="1">
          <mxGeometry relative="1" as="geometry">
            <mxPoint x="265" y="480" as="sourcePoint" />
            <mxPoint x="105" y="480" as="targetPoint" />
            <Array as="points">
              <mxPoint x="130" y="480.24" />
              <mxPoint x="210" y="480.24" />
            </Array>
          </mxGeometry>
        </mxCell>
        <mxCell id="LByolCIzenDjlAC9lmp4-64" value="No such record" style="html=1;verticalAlign=bottom;endArrow=none;labelBackgroundColor=none;fontFamily=Verdana;fontSize=12;edgeStyle=elbowEdgeStyle;elbow=vertical;entryX=-0.012;entryY=0.997;entryDx=0;entryDy=0;entryPerimeter=0;endFill=0;startArrow=block;startFill=1;dashed=1;" parent="1" edge="1">
          <mxGeometry relative="1" as="geometry">
            <mxPoint x="275" y="560.15" as="sourcePoint" />
            <mxPoint x="504.8800000000001" y="559.9999999999999" as="targetPoint" />
            <Array as="points">
              <mxPoint x="429.88" y="560" />
            </Array>
          </mxGeometry>
        </mxCell>
        <mxCell id="LByolCIzenDjlAC9lmp4-65" value="Confirm" style="html=1;verticalAlign=bottom;endArrow=block;entryX=0;entryY=0;labelBackgroundColor=none;fontFamily=Verdana;fontSize=12;edgeStyle=elbowEdgeStyle;elbow=vertical;strokeColor=#7A7A7A;fontColor=#7A7A7A;" parent="1" edge="1">
          <mxGeometry relative="1" as="geometry">
            <mxPoint x="105" y="600" as="sourcePoint" />
            <mxPoint x="265" y="600" as="targetPoint" />
          </mxGeometry>
        </mxCell>
        <mxCell id="LByolCIzenDjlAC9lmp4-66" value="Update household information" style="html=1;verticalAlign=bottom;endArrow=block;labelBackgroundColor=none;fontFamily=Verdana;fontSize=12;edgeStyle=elbowEdgeStyle;elbow=horizontal;entryX=0.021;entryY=0.327;entryDx=0;entryDy=0;entryPerimeter=0;" parent="1" edge="1">
          <mxGeometry relative="1" as="geometry">
            <mxPoint x="275" y="691" as="sourcePoint" />
            <mxPoint x="505.2099999999998" y="690.6099999999999" as="targetPoint" />
            <mxPoint as="offset" />
          </mxGeometry>
        </mxCell>
        <mxCell id="LByolCIzenDjlAC9lmp4-67" value="Prompt household information" style="html=1;verticalAlign=bottom;endArrow=none;labelBackgroundColor=none;fontFamily=Verdana;fontSize=12;edgeStyle=elbowEdgeStyle;elbow=vertical;entryX=-0.012;entryY=0.997;entryDx=0;entryDy=0;entryPerimeter=0;endFill=0;startArrow=block;startFill=1;dashed=1;exitX=1.055;exitY=0.191;exitDx=0;exitDy=0;exitPerimeter=0;" parent="1" edge="1">
          <mxGeometry relative="1" as="geometry">
            <mxPoint x="275.54999999999995" y="640.22" as="sourcePoint" />
            <mxPoint x="504.8800000000001" y="638.8" as="targetPoint" />
            <Array as="points">
              <mxPoint x="390" y="640" />
            </Array>
          </mxGeometry>
        </mxCell>
        <mxCell id="LByolCIzenDjlAC9lmp4-68" value="&lt;div&gt;Require&lt;br&gt;&lt;/div&gt;&lt;div&gt;insurance information&lt;/div&gt;" style="html=1;verticalAlign=bottom;endArrow=none;labelBackgroundColor=none;fontFamily=Verdana;fontSize=12;edgeStyle=elbowEdgeStyle;elbow=vertical;endFill=0;startArrow=block;startFill=1;dashed=1;strokeColor=#7A7A7A;fontColor=#7A7A7A;" parent="1" edge="1">
          <mxGeometry relative="1" as="geometry">
            <mxPoint x="105" y="730" as="sourcePoint" />
            <mxPoint x="265" y="730" as="targetPoint" />
            <Array as="points">
              <mxPoint x="210" y="730" />
              <mxPoint x="259.88" y="720.0000000000001" />
            </Array>
          </mxGeometry>
        </mxCell>
        <mxCell id="LByolCIzenDjlAC9lmp4-69" value="&lt;div&gt;Provide&lt;/div&gt;&lt;div&gt;insurance information&lt;br&gt;&lt;/div&gt;" style="html=1;verticalAlign=bottom;endArrow=block;entryX=0;entryY=0;labelBackgroundColor=none;fontFamily=Verdana;fontSize=12;edgeStyle=elbowEdgeStyle;elbow=vertical;strokeColor=#7A7A7A;fontColor=#7A7A7A;" parent="1" edge="1">
          <mxGeometry relative="1" as="geometry">
            <mxPoint x="105" y="760.33" as="sourcePoint" />
            <mxPoint x="265" y="760.33" as="targetPoint" />
          </mxGeometry>
        </mxCell>
        <mxCell id="LByolCIzenDjlAC9lmp4-70" value="&lt;div&gt;Require&lt;br&gt;&lt;/div&gt;&lt;div&gt;household information&lt;/div&gt;" style="html=1;verticalAlign=bottom;endArrow=none;labelBackgroundColor=none;fontFamily=Verdana;fontSize=12;edgeStyle=elbowEdgeStyle;elbow=vertical;endFill=0;startArrow=block;startFill=1;dashed=1;strokeColor=#7A7A7A;fontColor=#7A7A7A;" parent="1" edge="1">
          <mxGeometry relative="1" as="geometry">
            <mxPoint x="105" y="650" as="sourcePoint" />
            <mxPoint x="265" y="650" as="targetPoint" />
            <Array as="points">
              <mxPoint x="210" y="650" />
              <mxPoint x="259.88" y="640.0000000000001" />
            </Array>
          </mxGeometry>
        </mxCell>
        <mxCell id="LByolCIzenDjlAC9lmp4-71" value="Create new patient" style="html=1;verticalAlign=bottom;endArrow=block;entryX=-0.048;entryY=0.14;labelBackgroundColor=none;fontFamily=Verdana;fontSize=12;edgeStyle=elbowEdgeStyle;elbow=horizontal;entryDx=0;entryDy=0;entryPerimeter=0;" parent="1" edge="1">
          <mxGeometry relative="1" as="geometry">
            <mxPoint x="275" y="610" as="sourcePoint" />
            <mxPoint x="504.52" y="610.2" as="targetPoint" />
            <mxPoint as="offset" />
          </mxGeometry>
        </mxCell>
        <mxCell id="LByolCIzenDjlAC9lmp4-74" value="&lt;div&gt;Provide&lt;/div&gt;&lt;div&gt;household information&lt;br&gt;&lt;/div&gt;" style="html=1;verticalAlign=bottom;endArrow=block;entryX=0;entryY=0;labelBackgroundColor=none;fontFamily=Verdana;fontSize=12;edgeStyle=elbowEdgeStyle;elbow=vertical;strokeColor=#7A7A7A;fontColor=#7A7A7A;" parent="1" edge="1">
          <mxGeometry relative="1" as="geometry">
            <mxPoint x="105" y="680" as="sourcePoint" />
            <mxPoint x="265" y="680" as="targetPoint" />
          </mxGeometry>
        </mxCell>
        <mxCell id="LByolCIzenDjlAC9lmp4-75" value="Update insurance information" style="html=1;verticalAlign=bottom;endArrow=block;labelBackgroundColor=none;fontFamily=Verdana;fontSize=12;edgeStyle=elbowEdgeStyle;elbow=horizontal;entryX=-0.014;entryY=0.588;entryDx=0;entryDy=0;entryPerimeter=0;" parent="1" edge="1">
          <mxGeometry relative="1" as="geometry">
            <mxPoint x="275" y="772.2" as="sourcePoint" />
            <mxPoint x="505" y="772.2" as="targetPoint" />
            <mxPoint as="offset" />
          </mxGeometry>
        </mxCell>
        <mxCell id="LByolCIzenDjlAC9lmp4-76" value="Prompt insurance information" style="html=1;verticalAlign=bottom;endArrow=none;labelBackgroundColor=none;fontFamily=Verdana;fontSize=12;edgeStyle=elbowEdgeStyle;elbow=vertical;entryX=-0.012;entryY=0.997;entryDx=0;entryDy=0;entryPerimeter=0;endFill=0;startArrow=block;startFill=1;dashed=1;exitX=1.02;exitY=0.347;exitDx=0;exitDy=0;exitPerimeter=0;" parent="1" edge="1">
          <mxGeometry relative="1" as="geometry">
            <mxPoint x="275" y="721.2" as="sourcePoint" />
            <mxPoint x="504.8800000000001" y="720" as="targetPoint" />
            <Array as="points">
              <mxPoint x="390" y="721.2" />
            </Array>
          </mxGeometry>
        </mxCell>
        <mxCell id="LByolCIzenDjlAC9lmp4-77" value="&lt;div&gt;Require&lt;br&gt;&lt;/div&gt;&lt;div&gt;telephone number&lt;br&gt;&lt;/div&gt;" style="html=1;verticalAlign=bottom;endArrow=none;labelBackgroundColor=none;fontFamily=Verdana;fontSize=12;edgeStyle=elbowEdgeStyle;elbow=vertical;endFill=0;startArrow=block;startFill=1;dashed=1;strokeColor=#7A7A7A;fontColor=#7A7A7A;" parent="1" edge="1">
          <mxGeometry relative="1" as="geometry">
            <mxPoint x="105" y="810" as="sourcePoint" />
            <mxPoint x="265" y="810" as="targetPoint" />
            <Array as="points">
              <mxPoint x="210" y="810" />
              <mxPoint x="259.88" y="800.0000000000001" />
            </Array>
          </mxGeometry>
        </mxCell>
        <mxCell id="LByolCIzenDjlAC9lmp4-78" value="&lt;div&gt;Provide&lt;/div&gt;&lt;div&gt;telephone number&lt;br&gt;&lt;/div&gt;" style="html=1;verticalAlign=bottom;endArrow=block;entryX=0;entryY=0;labelBackgroundColor=none;fontFamily=Verdana;fontSize=12;edgeStyle=elbowEdgeStyle;elbow=vertical;strokeColor=#7A7A7A;fontColor=#7A7A7A;" parent="1" edge="1">
          <mxGeometry relative="1" as="geometry">
            <mxPoint x="105" y="840.33" as="sourcePoint" />
            <mxPoint x="265" y="840.33" as="targetPoint" />
          </mxGeometry>
        </mxCell>
        <mxCell id="LByolCIzenDjlAC9lmp4-79" value="Update telephone number" style="html=1;verticalAlign=bottom;endArrow=block;labelBackgroundColor=none;fontFamily=Verdana;fontSize=12;edgeStyle=elbowEdgeStyle;elbow=horizontal;entryX=-0.014;entryY=0.588;entryDx=0;entryDy=0;entryPerimeter=0;" parent="1" edge="1">
          <mxGeometry relative="1" as="geometry">
            <mxPoint x="275" y="852.2" as="sourcePoint" />
            <mxPoint x="505" y="852.2" as="targetPoint" />
            <mxPoint as="offset" />
          </mxGeometry>
        </mxCell>
        <mxCell id="LByolCIzenDjlAC9lmp4-80" value="Prompt telephone number" style="html=1;verticalAlign=bottom;endArrow=none;labelBackgroundColor=none;fontFamily=Verdana;fontSize=12;edgeStyle=elbowEdgeStyle;elbow=vertical;entryX=-0.012;entryY=0.997;entryDx=0;entryDy=0;entryPerimeter=0;endFill=0;startArrow=block;startFill=1;dashed=1;exitX=1.02;exitY=0.347;exitDx=0;exitDy=0;exitPerimeter=0;" parent="1" edge="1">
          <mxGeometry x="0.004" relative="1" as="geometry">
            <mxPoint x="275" y="801.2" as="sourcePoint" />
            <mxPoint x="504.8800000000001" y="800" as="targetPoint" />
            <Array as="points">
              <mxPoint x="390" y="801.2" />
            </Array>
            <mxPoint as="offset" />
          </mxGeometry>
        </mxCell>
        <mxCell id="LByolCIzenDjlAC9lmp4-81" value="Request ID" style="html=1;verticalAlign=bottom;endArrow=block;labelBackgroundColor=none;fontFamily=Verdana;fontSize=12;edgeStyle=elbowEdgeStyle;elbow=vertical;dashed=1;strokeColor=#7A7A7A;fontColor=#7A7A7A;" parent="1" edge="1">
          <mxGeometry relative="1" as="geometry">
            <mxPoint x="265" y="880" as="sourcePoint" />
            <mxPoint x="105" y="880" as="targetPoint" />
            <Array as="points">
              <mxPoint x="130" y="880" />
              <mxPoint x="210" y="880" />
            </Array>
          </mxGeometry>
        </mxCell>
        <mxCell id="LByolCIzenDjlAC9lmp4-82" value="Provide ID" style="html=1;verticalAlign=bottom;endArrow=block;entryX=0;entryY=0;labelBackgroundColor=none;fontFamily=Verdana;fontSize=12;edgeStyle=elbowEdgeStyle;elbow=vertical;strokeColor=#7A7A7A;fontColor=#7A7A7A;" parent="1" edge="1">
          <mxGeometry relative="1" as="geometry">
            <mxPoint x="105" y="910" as="sourcePoint" />
            <mxPoint x="265" y="910" as="targetPoint" />
          </mxGeometry>
        </mxCell>
        <mxCell id="LByolCIzenDjlAC9lmp4-83" value="&lt;div&gt;Visual confirm: ID is valid,&lt;/div&gt;&lt;div&gt;Address matches&lt;br&gt;&lt;/div&gt;" style="html=1;verticalAlign=bottom;endArrow=block;labelBackgroundColor=none;fontFamily=Verdana;fontSize=12;edgeStyle=orthogonalEdgeStyle;elbow=vertical;rounded=0;curved=0;exitX=1.073;exitY=0.217;exitDx=0;exitDy=0;exitPerimeter=0;endFill=1;entryX=1.047;entryY=0.253;entryDx=0;entryDy=0;entryPerimeter=0;" parent="1" edge="1">
          <mxGeometry x="-0.1167" relative="1" as="geometry">
            <mxPoint x="275" y="920" as="sourcePoint" />
            <mxPoint x="274" y="950" as="targetPoint" />
            <Array as="points">
              <mxPoint x="389" y="920" />
              <mxPoint x="389" y="950" />
            </Array>
            <mxPoint as="offset" />
          </mxGeometry>
        </mxCell>
        <mxCell id="LByolCIzenDjlAC9lmp4-72" value="alt" style="shape=umlFrame;whiteSpace=wrap;html=1;pointerEvents=0;recursiveResize=0;container=0;collapsible=0;width=40;height=15;" parent="1" vertex="1">
          <mxGeometry x="90" y="540" width="570" height="490" as="geometry" />
        </mxCell>
        <mxCell id="LByolCIzenDjlAC9lmp4-84" value="" style="html=1;points=[];perimeter=orthogonalPerimeter;rounded=0;shadow=0;comic=0;labelBackgroundColor=none;strokeWidth=1;fontFamily=Verdana;fontSize=12;align=center;" parent="1" vertex="1">
          <mxGeometry x="505" y="560" width="10" height="460" as="geometry" />
        </mxCell>
        <mxCell id="LByolCIzenDjlAC9lmp4-85" value="Submit patient record" style="html=1;verticalAlign=bottom;endArrow=block;labelBackgroundColor=none;fontFamily=Verdana;fontSize=12;edgeStyle=elbowEdgeStyle;elbow=horizontal;entryX=-0.014;entryY=0.588;entryDx=0;entryDy=0;entryPerimeter=0;" parent="1" edge="1">
          <mxGeometry relative="1" as="geometry">
            <mxPoint x="275" y="970" as="sourcePoint" />
            <mxPoint x="505" y="970" as="targetPoint" />
            <mxPoint as="offset" />
          </mxGeometry>
        </mxCell>
        <mxCell id="LByolCIzenDjlAC9lmp4-86" value="Return patient record" style="html=1;verticalAlign=bottom;endArrow=none;labelBackgroundColor=none;fontFamily=Verdana;fontSize=12;edgeStyle=elbowEdgeStyle;elbow=vertical;entryX=-0.012;entryY=0.997;entryDx=0;entryDy=0;entryPerimeter=0;endFill=0;startArrow=block;startFill=1;dashed=1;exitX=1.02;exitY=0.347;exitDx=0;exitDy=0;exitPerimeter=0;" parent="1" edge="1">
          <mxGeometry x="0.004" relative="1" as="geometry">
            <mxPoint x="274.12" y="1020.25" as="sourcePoint" />
            <mxPoint x="504.0000000000001" y="1019.05" as="targetPoint" />
            <Array as="points">
              <mxPoint x="389.12" y="1020.25" />
            </Array>
            <mxPoint as="offset" />
          </mxGeometry>
        </mxCell>
        <mxCell id="twHPvS0NZ_lWjFZJo6q6-3" value="Confirm: First time here" style="html=1;verticalAlign=bottom;endArrow=none;labelBackgroundColor=none;fontFamily=Verdana;fontSize=12;edgeStyle=elbowEdgeStyle;elbow=vertical;endFill=0;startArrow=block;startFill=1;dashed=1;entryX=-0.1;entryY=0.366;entryDx=0;entryDy=0;entryPerimeter=0;strokeColor=#7A7A7A;fontColor=#7A7A7A;" parent="1" edge="1">
          <mxGeometry x="0.0028" relative="1" as="geometry">
            <mxPoint x="105" y="570.15" as="sourcePoint" />
            <mxPoint x="264" y="570" as="targetPoint" />
            <Array as="points">
              <mxPoint x="259.88" y="570" />
            </Array>
            <mxPoint as="offset" />
          </mxGeometry>
        </mxCell>
        <mxCell id="twHPvS0NZ_lWjFZJo6q6-24" value="Select &quot;Search patient&quot;" style="html=1;verticalAlign=bottom;endArrow=block;labelBackgroundColor=none;fontFamily=Verdana;fontSize=12;edgeStyle=orthogonalEdgeStyle;elbow=vertical;rounded=0;curved=0;entryX=-0.116;entryY=0;entryDx=0;entryDy=0;entryPerimeter=0;" parent="1" edge="1">
          <mxGeometry relative="1" as="geometry">
            <mxPoint x="275" y="240" as="sourcePoint" />
            <mxPoint x="504" y="240" as="targetPoint" />
            <Array as="points">
              <mxPoint x="390" y="240" />
              <mxPoint x="390" y="240" />
            </Array>
            <mxPoint as="offset" />
          </mxGeometry>
        </mxCell>
        <mxCell id="gzFy-xVfyimzy8qEIkj1-56" value="&lt;div&gt;Confirm ongoing courses&lt;/div&gt;&lt;div&gt;of treatment&lt;br&gt;&lt;/div&gt;&lt;div&gt;(Require Procedure ID)&lt;/div&gt;" style="html=1;verticalAlign=bottom;endArrow=block;labelBackgroundColor=none;fontFamily=Verdana;fontSize=12;edgeStyle=elbowEdgeStyle;elbow=vertical;dashed=1;strokeColor=#7A7A7A;fontColor=#7A7A7A;" parent="1" edge="1">
          <mxGeometry relative="1" as="geometry">
            <mxPoint x="265" y="190" as="sourcePoint" />
            <mxPoint x="105" y="190" as="targetPoint" />
            <Array as="points">
              <mxPoint x="130" y="190" />
              <mxPoint x="210" y="190" />
            </Array>
          </mxGeometry>
        </mxCell>
        <mxCell id="gzFy-xVfyimzy8qEIkj1-57" value="Denies" style="html=1;verticalAlign=bottom;endArrow=block;entryX=0;entryY=0;labelBackgroundColor=none;fontFamily=Verdana;fontSize=12;edgeStyle=elbowEdgeStyle;elbow=vertical;strokeColor=#7A7A7A;fontColor=#7A7A7A;" parent="1" edge="1">
          <mxGeometry relative="1" as="geometry">
            <mxPoint x="105" y="220.14" as="sourcePoint" />
            <mxPoint x="265" y="220.14" as="targetPoint" />
          </mxGeometry>
        </mxCell>
      </root>
    </mxGraphModel>
  </diagram>
</mxfile>
